HIERARCHY
ROOT Hips
{
	OFFSET 48.966599 -19.765516 100.591003
	CHANNELS 6 Xposition Yposition Zposition Xrotation Yrotation Zrotation
	JOINT spine
	{
		OFFSET 0.000000 -0.507025 8.817039
		CHANNELS 3 Xrotation Yrotation Zrotation
		JOINT spine1
		{
			OFFSET 0.000000 -0.000002 10.776604
			CHANNELS 3 Xrotation Yrotation Zrotation
			JOINT spine2
			{
				OFFSET 0.000000 -0.000002 10.325897
				CHANNELS 3 Xrotation Yrotation Zrotation
				JOINT Neck
				{
					OFFSET 0.000000 -1.263954 26.511002
					CHANNELS 3 Xrotation Yrotation Zrotation
					JOINT Head
					{
						OFFSET 0.000000 -0.000002 8.009659
						CHANNELS 3 Xrotation Yrotation Zrotation
						End Site
						{
							OFFSET 0.000000 6.393856 19.387894
						}
					}
				}
				JOINT RightShoulder
				{
					OFFSET -4.347950 0.605419 11.151199
					CHANNELS 3 Xrotation Yrotation Zrotation
					JOINT RightArm
					{
						OFFSET 0.000000 -0.000002 14.625793
						CHANNELS 3 Xrotation Yrotation Zrotation
						JOINT RightArmRoll
						{
							OFFSET 0.000000 -0.000002 7.383392
							CHANNELS 3 Xrotation Yrotation Zrotation
							JOINT RightForeArm
							{
								OFFSET 0.000000 -0.000004 21.505203
								CHANNELS 3 Xrotation Yrotation Zrotation
								JOINT RightForeArmRoll
								{
									OFFSET 0.000000 -0.000002 8.285324
									CHANNELS 3 Xrotation Yrotation Zrotation
									JOINT RightHand
									{
										OFFSET 0.000000 -0.000002 16.626801
										CHANNELS 3 Xrotation Yrotation Zrotation
										End Site
										{
											OFFSET 0.000000 0.000000 0.100006
										}
									}
								}
							}
						}
					}
				}
				JOINT LeftShoulder
				{
					OFFSET 4.347950 0.605419 11.151199
					CHANNELS 3 Xrotation Yrotation Zrotation
					JOINT LeftArm
					{
						OFFSET 0.000000 -0.000002 14.625793
						CHANNELS 3 Xrotation Yrotation Zrotation
						JOINT LeftArmRoll
						{
							OFFSET 0.000000 -0.000002 7.383392
							CHANNELS 3 Xrotation Yrotation Zrotation
							JOINT LeftForeArm
							{
								OFFSET 0.000000 -0.000004 21.505203
								CHANNELS 3 Xrotation Yrotation Zrotation
								JOINT LeftForeArmRoll
								{
									OFFSET 0.000000 -0.000002 8.285324
									CHANNELS 3 Xrotation Yrotation Zrotation
									JOINT LeftHand
									{
										OFFSET 0.000000 -0.000002 16.626801
										CHANNELS 3 Xrotation Yrotation Zrotation
										End Site
										{
											OFFSET 0.000000 0.000000 0.100006
										}
									}
								}
							}
						}
					}
				}
			}
		}
	}
	JOINT RightUpLeg
	{
		OFFSET -7.815102 1.202171 -1.433090
		CHANNELS 3 Xrotation Yrotation Zrotation
		JOINT RightUpLegRoll
		{
			OFFSET 0.000000 -0.000004 19.495895
			CHANNELS 3 Xrotation Yrotation Zrotation
			JOINT RightLeg
			{
				OFFSET 0.000000 0.000004 -24.142700
				CHANNELS 3 Xrotation Yrotation Zrotation
				JOINT RightLegRoll
				{
					OFFSET 0.000000 -0.000004 24.221703
					CHANNELS 3 Xrotation Yrotation Zrotation
					JOINT RightFoot
					{
						OFFSET 0.000000 -0.000004 20.160500
						CHANNELS 3 Xrotation Yrotation Zrotation
						JOINT RightToeBase
						{
							OFFSET 0.000000 -0.000002 16.853195
							CHANNELS 3 Xrotation Yrotation Zrotation
							End Site
							{
								OFFSET 0.007145 0.940779 8.161865
							}
						}
					}
				}
			}
		}
	}
	JOINT LeftUpLeg
	{
		OFFSET 7.815102 1.202171 -1.433090
		CHANNELS 3 Xrotation Yrotation Zrotation
		JOINT LeftUpLegRoll
		{
			OFFSET 0.000000 -0.000004 19.496002
			CHANNELS 3 Xrotation Yrotation Zrotation
			JOINT LeftLeg
			{
				OFFSET 0.000000 -0.000004 24.142593
				CHANNELS 3 Xrotation Yrotation Zrotation
				JOINT LeftLegRoll
				{
					OFFSET 0.000000 -0.000004 24.445602
					CHANNELS 3 Xrotation Yrotation Zrotation
					JOINT LeftFoot
					{
						OFFSET 0.000000 -0.000004 19.936600
						CHANNELS 3 Xrotation Yrotation Zrotation
						JOINT LeftToeBase
						{
							OFFSET 0.000000 -0.000002 16.853195
							CHANNELS 3 Xrotation Yrotation Zrotation
							End Site
							{
								OFFSET -0.032013 0.940779 8.161865
							}
						}
					}
				}
			}
		}
	}
}
MOTION
Frames: 9
Frame Time: 0.041667
49.033295 -20.519617 100.682991 -5.253936 -0.347040 1.608188 -2.233362 -0.081559 -0.076700 -0.465031 -0.163882 -0.143732 1.180044 -0.165641 -0.141756 22.319229 4.617805 0.060931 -6.143353 7.870922 -0.068888 -9.316927 -65.598380 -11.432007 -44.997215 -128.933262 -96.425387 -0.000002 -0.000001 0.000002 101.120097 10.835986 -17.491973 -0.000002 -0.000017 -3.000933 -5.000201 -7.998826 0.000148 -8.841459 59.528623 10.495621 -54.211843 139.053772 88.866075 -0.000004 0.000038 0.000001 89.373934 -2.671809 6.816498 0.000005 -0.000007 3.000002 -5.000225 7.998691 -0.000155 5.147020 -177.089757 0.767972 -179.999991 0.000005 -1.197997 173.094506 -1.098976 -0.448103 -0.000005 0.000001 0.141566 70.606377 6.870146 2.085207 25.677989 -7.353850 0.330816 4.246456 176.385920 1.293453 -0.000005 -0.000004 -1.194190 -6.866092 2.190582 0.419362 -0.000008 0.000002 -0.104986 69.661366 -6.898552 -2.058082 25.705057 7.355615 -0.371158 
49.019096 -20.520916 100.665985 -5.248034 -0.341063 1.612833 -2.237680 -0.081885 -0.077566 -0.473735 -0.164773 -0.145924 1.171344 -0.166566 -0.143934 22.418822 4.579010 0.065582 -6.259969 7.923002 -0.057684 -9.399409 -65.568655 -11.523934 -45.128351 -128.898674 -96.315414 -0.000001 -0.000003 -0.000001 101.129871 10.799422 -17.450322 -0.000001 -0.000020 -3.000931 -5.000198 -7.998824 0.000147 -8.816457 59.521267 10.465714 -54.317773 138.913767 88.834882 -0.000003 0.000038 0.000000 89.364214 -2.681034 6.812827 0.000001 -0.000006 3.000003 -5.000228 7.998691 -0.000156 5.144102 -177.101696 0.758486 -179.999991 0.000005 -1.197996 173.097976 -1.094021 -0.447435 -0.000006 0.000000 0.141608 70.604253 6.870156 2.085140 25.678888 -7.353850 0.332028 4.238152 176.376904 1.289993 -0.000005 -0.000005 -1.194190 -6.871531 2.189395 0.419423 -0.000008 0.000002 -0.105054 69.665908 -6.898511 -2.058192 25.705760 7.355619 -0.372200 
49.030994 -20.519817 100.667000 -5.241408 -0.335075 1.617532 -2.242292 -0.082160 -0.078378 -0.482960 -0.165536 -0.148002 1.162115 -0.167360 -0.146003 22.517863 4.538584 0.070591 -6.372419 7.975640 -0.046486 -9.480777 -65.539743 -11.614664 -45.262974 -128.862529 -96.204580 -0.000001 -0.000002 0.000002 101.142725 10.762898 -17.409947 -0.000003 -0.000017 -3.000920 -5.000200 -7.998823 0.000147 -8.788475 59.514006 10.432293 -54.425232 138.773325 88.799802 -0.000002 0.000038 0.000000 89.354276 -2.689566 6.808439 0.000001 -0.000005 3.000001 -5.000227 7.998690 -0.000156 5.140217 -177.112638 0.749054 -179.999991 0.000005 -1.197997 173.101145 -1.089064 -0.447771 -0.000006 0.000001 0.141649 70.602231 6.870137 2.085162 25.679903 -7.353852 0.333258 4.228893 176.367888 1.286546 -0.000005 -0.000005 -1.194190 -6.877090 2.188367 0.419480 -0.000009 0.000002 -0.105121 69.670347 -6.898503 -2.058213 25.706368 7.355619 -0.373116 
49.026196 -20.520817 100.682999 -5.234076 -0.329117 1.622201 -2.247123 -0.082384 -0.079120 -0.492559 -0.166165 -0.149920 1.152514 -0.168017 -0.147912 22.614345 4.496776 0.075989 -6.478664 8.028309 -0.035442 -9.560482 -65.511794 -11.703583 -45.402344 -128.823160 -96.094410 -0.000000 0.000000 0.000000 101.160211 10.727125 -17.371075 -0.000003 -0.000016 -3.000920 -5.000200 -7.998823 0.000148 -8.758211 59.506097 10.396141 -54.534515 138.633716 88.759217 -0.000001 0.000039 0.000000 89.344386 -2.696836 6.802765 0.000004 -0.000004 3.000001 -5.000224 7.998698 -0.000152 5.135357 -177.124564 0.739595 -179.999991 0.000005 -1.197997 173.104014 -1.084107 -0.448114 -0.000006 0.000000 0.141691 70.600291 6.870086 2.085072 25.680815 -7.353849 0.334469 4.218756 176.358858 1.283137 -0.000005 -0.000004 -1.194200 -6.882741 2.187536 0.419536 -0.000008 0.000002 -0.105187 69.674685 -6.898488 -2.058241 25.706973 7.355617 -0.373931 
49.007496 -20.517017 100.673996 -5.226074 -0.323233 1.626816 -2.252091 -0.082558 -0.079774 -0.502383 -0.166655 -0.151623 1.142695 -0.168533 -0.149607 22.706180 4.453858 0.081818 -6.576609 8.080499 -0.024718 -9.637951 -65.484739 -11.790038 -45.543005 -128.782274 -95.980373 -0.000000 -0.000000 0.000002 101.183747 10.692632 -17.336900 -0.000004 -0.000018 -3.000921 -5.000203 -7.998824 0.000147 -8.726467 59.497266 10.358173 -54.645140 138.496757 88.710114 -0.000004 0.000036 -0.000002 89.334810 -2.702419 6.795310 0.000002 -0.000003 3.000003 -5.000225 7.998695 -0.000155 5.129541 -177.135506 0.730387 -179.999991 0.000005 -1.197996 173.106486 -1.080139 -0.447587 -0.000006 0.000001 0.141732 70.598263 6.870065 2.085093 25.681718 -7.353850 0.335672 4.207753 176.350840 1.279871 -0.000005 -0.000005 -1.194200 -6.888462 2.186915 0.419589 -0.000009 0.000002 -0.105251 69.678933 -6.898503 -2.058280 25.707379 7.355620 -0.374626 
49.011295 -20.517918 100.675003 -5.217441 -0.317467 1.631301 -2.257144 -0.082682 -0.080322 -0.512282 -0.167001 -0.153063 1.132795 -0.168901 -0.151041 22.791557 4.410076 0.088083 -6.664205 8.131681 -0.014487 -9.712721 -65.458723 -11.873508 -45.686907 -128.737414 -95.865011 -0.000001 -0.000004 0.000001 101.214825 10.659997 -17.307617 -0.000003 -0.000014 -3.000920 -5.000201 -7.998818 0.000146 -8.693995 59.487082 10.319231 -54.756582 138.364347 88.649811 -0.000001 0.000037 0.000000 89.325740 -2.705944 6.785772 0.000002 -0.000004 3.000004 -5.000230 7.998690 -0.000157 5.122765 -177.145423 0.721528 -179.999991 0.000005 -1.197996 173.108535 -1.076170 -0.448065 -0.000006 0.000000 0.141773 70.596439 6.870014 2.085098 25.682623 -7.353847 0.336854 4.195938 176.341797 1.276625 -0.000005 -0.000004 -1.194200 -6.894224 2.186521 0.419639 -0.000008 0.000002 -0.105314 69.683052 -6.898480 -2.058318 25.707784 7.355619 -0.375209 
49.002197 -20.528711 100.676003 -5.208206 -0.311861 1.635614 -2.262202 -0.082757 -0.080748 -0.522108 -0.167202 -0.154188 1.122975 -0.169119 -0.152162 22.868392 4.365675 0.094808 -6.739373 8.181355 -0.004932 -9.784196 -65.433697 -11.953296 -45.831669 -128.689657 -95.745223 -0.000003 -0.000002 -0.000001 101.255184 10.629685 -17.284390 -0.000006 -0.000018 -3.000922 -5.000202 -7.998823 0.000151 -8.661516 59.474863 10.280125 -54.868334 138.238316 88.575177 0.000001 0.000036 -0.000001 89.317482 -2.706869 6.773669 0.000001 -0.000006 3.000002 -5.000227 7.998693 -0.000155 5.115013 -177.155354 0.713030 -179.999991 0.000005 -1.197997 173.110093 -1.072201 -0.447556 -0.000006 0.000000 0.141815 70.594622 6.869997 2.085106 25.683436 -7.353851 0.338023 4.183336 176.334762 1.273649 -0.000005 -0.000004 -1.194200 -6.900007 2.186385 0.419685 -0.000009 0.000002 -0.105375 69.686958 -6.898451 -2.058371 25.708086 7.355620 -0.375697 
49.008202 -20.528214 100.676994 -5.198404 -0.306461 1.639698 -2.267201 -0.082783 -0.081033 -0.531711 -0.167253 -0.154948 1.113364 -0.169181 -0.152919 22.934684 4.320920 0.102000 -6.800047 8.228999 0.003756 -9.851846 -65.409675 -12.028828 -45.977480 -128.637980 -95.621180 -0.000001 -0.000000 0.000001 101.306001 10.602572 -17.268467 -0.000002 -0.000018 -3.000920 -5.000203 -7.998823 0.000149 -8.629811 59.460383 10.241737 -54.980438 138.119840 88.484513 -0.000002 0.000039 -0.000003 89.310304 -2.704641 6.758720 0.000001 -0.000005 3.000000 -5.000226 7.998693 -0.000157 5.106303 -177.164288 0.705078 -179.999991 0.000005 -1.197997 173.111117 -1.068229 -0.448068 -0.000006 0.000000 0.141856 70.593017 6.869981 2.085003 25.684242 -7.353849 0.339168 4.170007 176.326716 1.270761 -0.000005 -0.000004 -1.194210 -6.905793 2.186518 0.419728 -0.000008 0.000002 -0.105436 69.690572 -6.898477 -2.058451 25.708291 7.355618 -0.376077 
49.008995 -20.525015 100.676003 -5.187293 -0.301072 1.643808 -2.272559 -0.082726 -0.081179 -0.541876 -0.167081 -0.155360 1.103206 -0.169016 -0.153329 22.994978 4.273362 0.109863 -6.848801 8.276978 0.011827 -9.917775 -65.387552 -12.102511 -46.124326 -128.581152 -95.495245 -0.000001 -0.000002 0.000004 101.368484 10.578943 -17.261947 -0.000001 -0.000013 -3.000919 -5.000200 -7.998823 0.000149 -8.594644 59.444106 10.199132 -55.092685 138.005557 88.376835 0.000000 0.000037 0.000000 89.304109 -2.699645 6.740996 0.000001 -0.000005 2.999998 -5.000227 7.998689 -0.000155 5.095868 -177.172197 0.697342 -179.999991 0.000005 -1.197997 173.111595 -1.065260 -0.447700 -0.000006 0.000001 0.141897 70.591316 6.869962 2.085105 25.685053 -7.353853 0.340327 4.154971 176.319667 1.268008 -0.000005 -0.000005 -1.194210 -6.911839 2.187015 0.419768 -0.000008 0.000002 -0.105495 69.694171 -6.898469 -2.058426 25.708494 7.355615 -0.376317 
